<?xml version="1.0" encoding="utf-8"?>
<!-- Generator: Adobe Illustrator 16.0.0, SVG Export Plug-In . SVG Version: 6.00 Build 0)  -->
<!DOCTYPE svg PUBLIC "-//W3C//DTD SVG 1.1//EN" "http://www.w3.org/Graphics/SVG/1.1/DTD/svg11.dtd">
<svg version="1.1" id="Layer_1" xmlns="http://www.w3.org/2000/svg" xmlns:xlink="http://www.w3.org/1999/xlink" x="0px" y="0px"
	 width="6.643px" height="8px" viewBox="0 0 6.643 8" enable-background="new 0 0 6.643 8" xml:space="preserve">
<path d="M6.038,1.357H4.68C4.68,0.609,4.07,0,3.32,0C2.572,0,1.963,0.609,1.963,1.357H0.604L0,8h3.322h3.32L6.038,1.357z
	 M2.113,2.193c-0.125,0-0.227-0.104-0.227-0.229c0-0.066,0.03-0.125,0.076-0.165v0.165c0,0.085,0.066,0.151,0.15,0.151
	s0.15-0.066,0.15-0.151V1.797C2.311,1.838,2.34,1.897,2.34,1.963C2.34,2.088,2.238,2.193,2.113,2.193z M2.264,1.357
	c0.001-0.582,0.475-1.055,1.059-1.055c0.58,0,1.055,0.474,1.057,1.055H3.322H2.264z M4.527,2.193c-0.125,0-0.227-0.104-0.227-0.229
	c0-0.066,0.031-0.125,0.078-0.167v0.167c0,0.085,0.066,0.151,0.148,0.151c0.086,0,0.152-0.066,0.152-0.151V1.799
	c0.046,0.04,0.074,0.099,0.074,0.165C4.754,2.088,4.652,2.193,4.527,2.193z"/>
</svg>
