<?xml version="1.0" encoding="utf-8"?>
<!-- Generator: Adobe Illustrator 16.0.0, SVG Export Plug-In . SVG Version: 6.00 Build 0)  -->
<!DOCTYPE svg PUBLIC "-//W3C//DTD SVG 1.1//EN" "http://www.w3.org/Graphics/SVG/1.1/DTD/svg11.dtd">
<svg version="1.1" id="Layer_1" xmlns="http://www.w3.org/2000/svg" xmlns:xlink="http://www.w3.org/1999/xlink" x="0px" y="0px"
	 width="15.001px" height="15px" viewBox="0 0 15.001 15" enable-background="new 0 0 15.001 15" xml:space="preserve">
<path d="M8.205,1.407c-1.877-1.877-4.92-1.877-6.797,0c-1.877,1.878-1.877,4.919,0,6.797c1.734,1.733,4.459,1.861,6.343,0.395
	l1.304,1.304v0.85L13.302,15l1.699-1.699l-4.247-4.248h-0.85L8.601,7.75C10.066,5.866,9.938,3.142,8.205,1.407z M2.258,7.354
	c-1.407-1.408-1.407-3.69,0-5.098c1.408-1.407,3.689-1.407,5.098,0c1.407,1.407,1.407,3.689,0,5.098
	C5.947,8.762,3.666,8.762,2.258,7.354z"/>
</svg>
