<?xml version="1.0" encoding="utf-8"?>
<!-- Generator: Adobe Illustrator 16.0.0, SVG Export Plug-In . SVG Version: 6.00 Build 0)  -->
<!DOCTYPE svg PUBLIC "-//W3C//DTD SVG 1.1//EN" "http://www.w3.org/Graphics/SVG/1.1/DTD/svg11.dtd">
<svg version="1.1" id="Layer_1" xmlns="http://www.w3.org/2000/svg" xmlns:xlink="http://www.w3.org/1999/xlink" x="0px" y="0px"
	 width="305.467px" height="17.746px" viewBox="0 0 305.467 17.746" enable-background="new 0 0 305.467 17.746"
	 xml:space="preserve">
<g>
	<g>
		<path fill="#010101" d="M3.724,3.199H3.699v10.022c0,2.525,0.8,3.625,3.35,3.899v0.351H0v-0.351
			c2.349-0.3,3.074-1.374,3.074-3.899V3.274C3.074,1.75,2.149,0.475,0,0.375V0.05h5.898l9.623,12.522h0.025V4.274
			c0-2.475-0.925-3.599-3.449-3.899V0.05h7.099v0.325c-2.35,0.35-3.024,1.424-3.024,3.899v13.472h-1.2L3.724,3.199z"/>
		<path fill="#010101" d="M24.774,14.671c0-1,0.525-2.024,1.575-2.6c1.799-0.975,4.649-0.899,5.474-1.199V8.848
			c0-1.774-0.525-2.574-1.85-2.574c-0.725,0-1.399,0.2-1.825,0.55c0.425,0.425,0.675,0.9,0.675,1.45c0,1.025-0.6,1.7-1.725,1.7
			c-0.975,0-1.699-0.75-1.699-1.675c0-1.5,1.674-2.5,5.099-2.5c3.049,0,4.649,1.15,4.649,3.899v5.573c0,1.226,0.475,1.6,1.824,1.024
			l0.15,0.275c-0.925,0.6-1.675,1-2.674,1c-1.575,0-2.225-0.625-2.425-1.899h-0.1c-0.925,1.024-2.075,1.925-3.699,1.925
			C25.849,17.596,24.774,16.096,24.774,14.671z M31.823,15.122v-3.75c-2.85,0.45-3.524,1.1-3.524,2.9c0,1.174,0.6,1.949,1.725,1.949
			C30.723,16.221,31.448,15.721,31.823,15.122z"/>
		<path fill="#010101" d="M41.899,17.096l7.398-10.673h-2.299c-1.425,0-2.424,0.725-4.174,3.824l-0.4-0.05l0.325-4.274h10.123
			l0.05,0.35l-7.423,10.698h2.524c1.6,0,2.474-0.975,4.274-4.074l0.425,0.05l-0.325,4.524H41.949L41.899,17.096z"/>
		<path fill="#010101" d="M58.749,14.671c0-1,0.525-2.024,1.575-2.6c1.799-0.975,4.649-0.899,5.474-1.199V8.848
			c0-1.774-0.525-2.574-1.85-2.574c-0.725,0-1.399,0.2-1.825,0.55c0.425,0.425,0.675,0.9,0.675,1.45c0,1.025-0.6,1.7-1.725,1.7
			c-0.975,0-1.699-0.75-1.699-1.675c0-1.5,1.674-2.5,5.099-2.5c3.049,0,4.649,1.15,4.649,3.899v5.573c0,1.226,0.475,1.6,1.824,1.024
			l0.15,0.275c-0.925,0.6-1.675,1-2.674,1c-1.575,0-2.225-0.625-2.425-1.899h-0.1c-0.925,1.024-2.075,1.925-3.699,1.925
			C59.824,17.596,58.749,16.096,58.749,14.671z M65.797,15.122v-3.75c-2.85,0.45-3.524,1.1-3.524,2.9c0,1.174,0.6,1.949,1.725,1.949
			C64.698,16.221,65.422,15.721,65.797,15.122z"/>
		<path fill="#010101" d="M75.724,17.17c1.45-0.024,1.75-0.225,1.75-0.924V7.648c0-0.75-0.3-1.225-1.75-1.25v-0.3l5.023-0.225v2.5
			c1.075-1.6,2.7-2.575,4.324-2.575c2.1,0,3.124,1.25,3.124,3.599v6.849c0,0.699,0.275,0.899,1.725,0.924v0.301h-6.423V17.17
			c1-0.024,1.375-0.225,1.375-0.924V9.623c0-1.5-0.5-2.35-1.774-2.35c-0.925,0-1.649,0.65-2.299,1.65v7.324
			c0,0.699,0.35,0.899,1.325,0.924v0.301h-6.398V17.17z"/>
		<path fill="#010101" d="M95.099,17.17c1.425-0.024,1.8-0.225,1.8-0.924V7.648c0-0.75-0.375-1.225-1.8-1.25v-0.3l5.124-0.225
			v10.373c0,0.699,0.275,0.899,1.75,0.924v0.301h-6.874V17.17z M96.523,2.024c0-1.2,0.8-2.024,1.975-2.024s1.949,0.775,1.949,1.95
			c0,1.225-0.774,2-1.949,2S96.523,3.249,96.523,2.024z"/>
		<path fill="#010101" d="M107.298,17.17c1.45-0.024,1.75-0.225,1.75-0.924V7.648c0-0.75-0.3-1.225-1.75-1.25v-0.3l5.023-0.225v2.5
			c1.075-1.6,2.7-2.575,4.324-2.575c2.1,0,3.124,1.25,3.124,3.599v6.849c0,0.699,0.275,0.899,1.725,0.924v0.301h-6.423V17.17
			c1-0.024,1.375-0.225,1.375-0.924V9.623c0-1.5-0.5-2.35-1.774-2.35c-0.925,0-1.649,0.65-2.299,1.65v7.324
			c0,0.699,0.35,0.899,1.325,0.924v0.301h-6.398V17.17z"/>
		<path fill="#010101" d="M142.396,15.696c0,1,0.65,1.35,2.474,1.425v0.351h-8.723v-0.351c2.074-0.075,2.599-0.475,2.599-1.425
			V1.825c0-0.95-0.525-1.375-2.599-1.45V0.05h8.523c5.199,0,7.048,1.925,7.048,4.224c0,2.149-1.375,3.749-5.299,4.299v0.075
			c3.674,0.125,4.649,1.75,4.974,4.099l0.15,1.925c0.3,2.024,0.65,2.35,2.725,2.399v0.3c-0.925,0.149-1.825,0.226-2.649,0.226
			c-3.125,0-3.649-0.975-3.849-3.175l-0.2-2.174c-0.25-2.524-0.924-3.375-3.774-3.375h-1.399V15.696z M144.096,8.448
			c3.125,0,3.799-1.125,3.799-3.949c0-2.5-0.95-3.999-4.074-3.999h-1.424v7.948H144.096z"/>
		<path fill="#010101" d="M158.973,11.722c0-3.649,2.5-5.999,6.049-5.999c3.648,0,6.023,2.25,6.023,5.898
			c0,3.674-2.5,6.048-6.023,6.048C161.323,17.67,158.973,15.396,158.973,11.722z M167.496,11.672c0-3.6-0.8-5.474-2.599-5.474
			c-1.775,0-2.35,1.875-2.35,5.474c0,3.599,0.774,5.523,2.574,5.523C166.872,17.196,167.496,15.271,167.496,11.672z"/>
		<path fill="#010101" d="M177.172,13.372h0.35c1.625,2.649,2.85,3.824,4.624,3.824c1.3,0,1.999-0.775,1.999-1.8
			c0-1.149-0.674-1.675-3.248-2.425c-2.625-0.749-3.725-1.549-3.725-3.423c0-2.3,1.774-3.824,4.549-3.824
			c1.274,0,2.375,0.35,3.124,0.85l0.7-0.85h0.3v3.849h-0.351c-1.449-2.3-2.349-3.375-3.924-3.375c-1.125,0-1.874,0.725-1.874,1.875
			c0,1.025,1.075,1.525,2.774,1.975c2.674,0.65,4.074,1.575,4.074,3.649c0,2.249-1.8,3.974-4.649,3.974
			c-0.925,0-2.949-0.5-3.649-0.924l-0.774,0.924h-0.3V13.372z"/>
		<path fill="#010101" d="M192.422,11.847c0-3.774,2.674-6.124,5.898-6.124c3.499,0,5.324,2.324,5.148,5.548h-7.523v0.475v0.025
			c0,3.049,1.301,4.85,3.774,4.85c1.524,0,2.499-0.75,3.449-2.051l0.274,0.176c-1.1,1.75-2.624,2.924-5.098,2.924
			C194.821,17.67,192.422,15.497,192.422,11.847z M195.971,10.822h4.1c0.299-2.849-0.326-4.624-1.9-4.624
			C196.771,6.198,196.071,7.898,195.971,10.822z"/>
		<path fill="#010101" d="M218.672,17.121c2.349-0.3,3.074-1.374,3.074-3.899V3.074c0-1.5-0.926-2.649-3.074-2.699V0.05h7.048
			l5.148,12.847h0.125l4.724-12.847h6.373v0.325c-2.099,0.075-2.599,0.5-2.599,1.45v13.871c0,0.95,0.5,1.35,2.599,1.425v0.351
			h-8.622v-0.351c1.774-0.075,2.399-0.425,2.399-1.425V1.75h-0.125l-5.824,15.746h-0.899L222.521,1.75h-0.15v11.472
			c0,2.525,0.75,3.574,3.249,3.899v0.351h-6.947V17.121z"/>
		<path fill="#010101" d="M248.147,14.671c0-1,0.524-2.024,1.574-2.6c1.799-0.975,4.648-0.899,5.474-1.199V8.848
			c0-1.774-0.524-2.574-1.85-2.574c-0.725,0-1.399,0.2-1.825,0.55c0.426,0.425,0.676,0.9,0.676,1.45c0,1.025-0.6,1.7-1.725,1.7
			c-0.975,0-1.699-0.75-1.699-1.675c0-1.5,1.674-2.5,5.098-2.5c3.05,0,4.649,1.15,4.649,3.899v5.573c0,1.226,0.475,1.6,1.824,1.024
			l0.15,0.275c-0.925,0.6-1.675,1-2.675,1c-1.574,0-2.225-0.625-2.424-1.899h-0.1c-0.926,1.024-2.075,1.925-3.699,1.925
			C249.221,17.596,248.147,16.096,248.147,14.671z M255.195,15.122v-3.75c-2.85,0.45-3.524,1.1-3.524,2.9
			c0,1.174,0.6,1.949,1.725,1.949C254.095,16.221,254.82,15.721,255.195,15.122z"/>
		<path fill="#010101" d="M266.946,14.196V6.874h-2.225v-0.4l2.275-0.475V2.824l3.273-1v4.224h3.524v0.8h-3.524v7.573
			c0,1.45,0.375,2.075,1.449,2.075c0.801,0,1.426-0.5,1.975-1.625l0.301,0.15c-0.725,1.799-1.775,2.674-3.6,2.674
			C268.371,17.696,266.946,16.721,266.946,14.196z"/>
		<path fill="#010101" d="M279.071,17.17c1.426-0.024,1.801-0.225,1.801-0.924V7.648c0-0.75-0.375-1.225-1.801-1.25v-0.3
			l5.125-0.225v10.373c0,0.699,0.274,0.899,1.749,0.924v0.301h-6.874V17.17z M280.497,2.024c0-1.2,0.799-2.024,1.975-2.024
			c1.174,0,1.949,0.775,1.949,1.95c0,1.225-0.775,2-1.949,2C281.295,3.949,280.497,3.249,280.497,2.024z"/>
		<path fill="#010101" d="M291.271,17.17c1.45-0.024,1.749-0.225,1.749-0.924V7.648c0-0.75-0.299-1.225-1.749-1.25v-0.3l5.023-0.225
			v2.5c1.075-1.6,2.7-2.575,4.324-2.575c2.1,0,3.124,1.25,3.124,3.599v6.849c0,0.699,0.275,0.899,1.725,0.924v0.301h-6.424V17.17
			c1-0.024,1.375-0.225,1.375-0.924V9.623c0-1.5-0.5-2.35-1.774-2.35c-0.925,0-1.649,0.65-2.3,1.65v7.324
			c0,0.699,0.35,0.899,1.325,0.924v0.301h-6.398V17.17z"/>
	</g>
</g>
<g>
	<g>
		<path fill="#010101" d="M3.724,3.199H3.699v10.022c0,2.525,0.8,3.625,3.35,3.899v0.351H0v-0.351
			c2.349-0.3,3.074-1.374,3.074-3.899V3.274C3.074,1.75,2.149,0.475,0,0.375V0.05h5.898l9.623,12.522h0.025V4.274
			c0-2.475-0.925-3.599-3.449-3.899V0.05h7.099v0.325c-2.35,0.35-3.024,1.424-3.024,3.899v13.472h-1.2L3.724,3.199z"/>
		<path fill="#010101" d="M24.774,14.671c0-1,0.525-2.024,1.575-2.6c1.799-0.975,4.649-0.899,5.474-1.199V8.848
			c0-1.774-0.525-2.574-1.85-2.574c-0.725,0-1.399,0.2-1.825,0.55c0.425,0.425,0.675,0.9,0.675,1.45c0,1.025-0.6,1.7-1.725,1.7
			c-0.975,0-1.699-0.75-1.699-1.675c0-1.5,1.674-2.5,5.099-2.5c3.049,0,4.649,1.15,4.649,3.899v5.573c0,1.226,0.475,1.6,1.824,1.024
			l0.15,0.275c-0.925,0.6-1.675,1-2.674,1c-1.575,0-2.225-0.625-2.425-1.899h-0.1c-0.925,1.024-2.075,1.925-3.699,1.925
			C25.849,17.596,24.774,16.096,24.774,14.671z M31.823,15.122v-3.75c-2.85,0.45-3.524,1.1-3.524,2.9c0,1.174,0.6,1.949,1.725,1.949
			C30.723,16.221,31.448,15.721,31.823,15.122z"/>
		<path fill="#010101" d="M41.899,17.096l7.398-10.673h-2.299c-1.425,0-2.424,0.725-4.174,3.824l-0.4-0.05l0.325-4.274h10.123
			l0.05,0.35l-7.423,10.698h2.524c1.6,0,2.474-0.975,4.274-4.074l0.425,0.05l-0.325,4.524H41.949L41.899,17.096z"/>
		<path fill="#010101" d="M58.749,14.671c0-1,0.525-2.024,1.575-2.6c1.799-0.975,4.649-0.899,5.474-1.199V8.848
			c0-1.774-0.525-2.574-1.85-2.574c-0.725,0-1.399,0.2-1.825,0.55c0.425,0.425,0.675,0.9,0.675,1.45c0,1.025-0.6,1.7-1.725,1.7
			c-0.975,0-1.699-0.75-1.699-1.675c0-1.5,1.674-2.5,5.099-2.5c3.049,0,4.649,1.15,4.649,3.899v5.573c0,1.226,0.475,1.6,1.824,1.024
			l0.15,0.275c-0.925,0.6-1.675,1-2.674,1c-1.575,0-2.225-0.625-2.425-1.899h-0.1c-0.925,1.024-2.075,1.925-3.699,1.925
			C59.824,17.596,58.749,16.096,58.749,14.671z M65.797,15.122v-3.75c-2.85,0.45-3.524,1.1-3.524,2.9c0,1.174,0.6,1.949,1.725,1.949
			C64.698,16.221,65.422,15.721,65.797,15.122z"/>
		<path fill="#010101" d="M75.724,17.17c1.45-0.024,1.75-0.225,1.75-0.924V7.648c0-0.75-0.3-1.225-1.75-1.25v-0.3l5.023-0.225v2.5
			c1.075-1.6,2.7-2.575,4.324-2.575c2.1,0,3.124,1.25,3.124,3.599v6.849c0,0.699,0.275,0.899,1.725,0.924v0.301h-6.423V17.17
			c1-0.024,1.375-0.225,1.375-0.924V9.623c0-1.5-0.5-2.35-1.774-2.35c-0.925,0-1.649,0.65-2.299,1.65v7.324
			c0,0.699,0.35,0.899,1.325,0.924v0.301h-6.398V17.17z"/>
		<path fill="#010101" d="M95.099,17.17c1.425-0.024,1.8-0.225,1.8-0.924V7.648c0-0.75-0.375-1.225-1.8-1.25v-0.3l5.124-0.225
			v10.373c0,0.699,0.275,0.899,1.75,0.924v0.301h-6.874V17.17z M96.523,2.024c0-1.2,0.8-2.024,1.975-2.024s1.949,0.775,1.949,1.95
			c0,1.225-0.774,2-1.949,2S96.523,3.249,96.523,2.024z"/>
		<path fill="#010101" d="M107.298,17.17c1.45-0.024,1.75-0.225,1.75-0.924V7.648c0-0.75-0.3-1.225-1.75-1.25v-0.3l5.023-0.225v2.5
			c1.075-1.6,2.7-2.575,4.324-2.575c2.1,0,3.124,1.25,3.124,3.599v6.849c0,0.699,0.275,0.899,1.725,0.924v0.301h-6.423V17.17
			c1-0.024,1.375-0.225,1.375-0.924V9.623c0-1.5-0.5-2.35-1.774-2.35c-0.925,0-1.649,0.65-2.299,1.65v7.324
			c0,0.699,0.35,0.899,1.325,0.924v0.301h-6.398V17.17z"/>
		<path fill="#010101" d="M142.396,15.696c0,1,0.65,1.35,2.474,1.425v0.351h-8.723v-0.351c2.074-0.075,2.599-0.475,2.599-1.425
			V1.825c0-0.95-0.525-1.375-2.599-1.45V0.05h8.523c5.199,0,7.048,1.925,7.048,4.224c0,2.149-1.375,3.749-5.299,4.299v0.075
			c3.674,0.125,4.649,1.75,4.974,4.099l0.15,1.925c0.3,2.024,0.65,2.35,2.725,2.399v0.3c-0.925,0.149-1.825,0.226-2.649,0.226
			c-3.125,0-3.649-0.975-3.849-3.175l-0.2-2.174c-0.25-2.524-0.924-3.375-3.774-3.375h-1.399V15.696z M144.096,8.448
			c3.125,0,3.799-1.125,3.799-3.949c0-2.5-0.95-3.999-4.074-3.999h-1.424v7.948H144.096z"/>
		<path fill="#010101" d="M158.973,11.722c0-3.649,2.499-5.999,6.049-5.999c3.648,0,6.023,2.25,6.023,5.898
			c0,3.674-2.5,6.048-6.023,6.048C161.323,17.67,158.973,15.396,158.973,11.722z M167.496,11.672c0-3.6-0.8-5.474-2.599-5.474
			c-1.775,0-2.35,1.875-2.35,5.474c0,3.599,0.774,5.523,2.574,5.523C166.872,17.196,167.496,15.271,167.496,11.672z"/>
		<path fill="#010101" d="M177.172,13.372h0.35c1.625,2.649,2.85,3.824,4.624,3.824c1.3,0,1.999-0.775,1.999-1.8
			c0-1.149-0.674-1.675-3.248-2.425c-2.625-0.749-3.725-1.549-3.725-3.423c0-2.3,1.774-3.824,4.549-3.824
			c1.274,0,2.375,0.35,3.124,0.85l0.7-0.85h0.3v3.849h-0.351c-1.449-2.3-2.349-3.375-3.924-3.375c-1.125,0-1.874,0.725-1.874,1.875
			c0,1.025,1.075,1.525,2.774,1.975c2.674,0.65,4.074,1.575,4.074,3.649c0,2.249-1.8,3.974-4.649,3.974
			c-0.925,0-2.949-0.5-3.649-0.924l-0.774,0.924h-0.3V13.372z"/>
		<path fill="#010101" d="M192.422,11.847c0-3.774,2.674-6.124,5.898-6.124c3.499,0,5.324,2.324,5.148,5.548h-7.523v0.475v0.025
			c0,3.049,1.301,4.85,3.774,4.85c1.524,0,2.499-0.75,3.449-2.051l0.274,0.176c-1.1,1.75-2.624,2.924-5.098,2.924
			C194.821,17.67,192.422,15.497,192.422,11.847z M195.971,10.822h4.1c0.299-2.849-0.326-4.624-1.9-4.624
			C196.771,6.198,196.071,7.898,195.971,10.822z"/>
		<path fill="#010101" d="M218.672,17.121c2.349-0.3,3.074-1.374,3.074-3.899V3.074c0-1.5-0.926-2.649-3.074-2.699V0.05h7.048
			l5.148,12.847h0.125l4.724-12.847h6.373v0.325c-2.099,0.075-2.599,0.5-2.599,1.45v13.871c0,0.95,0.5,1.35,2.599,1.425v0.351
			h-8.622v-0.351c1.774-0.075,2.399-0.425,2.399-1.425V1.75h-0.125l-5.824,15.746h-0.899L222.521,1.75h-0.15v11.472
			c0,2.525,0.75,3.574,3.249,3.899v0.351h-6.947V17.121z"/>
		<path fill="#010101" d="M248.147,14.671c0-1,0.524-2.024,1.574-2.6c1.799-0.975,4.648-0.899,5.474-1.199V8.848
			c0-1.774-0.524-2.574-1.85-2.574c-0.725,0-1.399,0.2-1.825,0.55c0.426,0.425,0.676,0.9,0.676,1.45c0,1.025-0.6,1.7-1.725,1.7
			c-0.975,0-1.699-0.75-1.699-1.675c0-1.5,1.674-2.5,5.098-2.5c3.05,0,4.649,1.15,4.649,3.899v5.573c0,1.226,0.475,1.6,1.824,1.024
			l0.15,0.275c-0.925,0.6-1.675,1-2.675,1c-1.574,0-2.225-0.625-2.424-1.899h-0.1c-0.926,1.024-2.075,1.925-3.699,1.925
			C249.221,17.596,248.147,16.096,248.147,14.671z M255.195,15.122v-3.75c-2.85,0.45-3.524,1.1-3.524,2.9
			c0,1.174,0.6,1.949,1.725,1.949C254.095,16.221,254.82,15.721,255.195,15.122z"/>
		<path fill="#010101" d="M266.946,14.196V6.874h-2.225v-0.4l2.275-0.475V2.824l3.273-1v4.224h3.524v0.8h-3.524v7.573
			c0,1.45,0.375,2.075,1.449,2.075c0.801,0,1.426-0.5,1.975-1.625l0.301,0.15c-0.725,1.799-1.775,2.674-3.6,2.674
			C268.371,17.696,266.946,16.721,266.946,14.196z"/>
		<path fill="#010101" d="M279.071,17.17c1.426-0.024,1.801-0.225,1.801-0.924V7.648c0-0.75-0.375-1.225-1.801-1.25v-0.3
			l5.125-0.225v10.373c0,0.699,0.274,0.899,1.749,0.924v0.301h-6.874V17.17z M280.497,2.024c0-1.2,0.799-2.024,1.975-2.024
			c1.174,0,1.949,0.775,1.949,1.95c0,1.225-0.775,2-1.949,2C281.295,3.949,280.497,3.249,280.497,2.024z"/>
		<path fill="#010101" d="M291.271,17.17c1.45-0.024,1.749-0.225,1.749-0.924V7.648c0-0.75-0.299-1.225-1.749-1.25v-0.3l5.023-0.225
			v2.5c1.075-1.6,2.7-2.575,4.324-2.575c2.1,0,3.124,1.25,3.124,3.599v6.849c0,0.699,0.275,0.899,1.725,0.924v0.301h-6.424V17.17
			c1-0.024,1.375-0.225,1.375-0.924V9.623c0-1.5-0.5-2.35-1.774-2.35c-0.925,0-1.649,0.65-2.3,1.65v7.324
			c0,0.699,0.35,0.899,1.325,0.924v0.301h-6.398V17.17z"/>
	</g>
</g>
</svg>
